<svg id="visual" viewBox="0 0 960 540" width="960" height="540" xmlns="http://www.w3.org/2000/svg" xmlns:xlink="http://www.w3.org/1999/xlink" version="1.1"><path d="M0 214L20 223C40 232 80 250 120 245.8C160 241.7 200 215.3 240 215.8C280 216.3 320 243.7 360 268.5C400 293.3 440 315.7 480 321.2C520 326.7 560 315.3 600 298.3C640 281.3 680 258.7 720 231.2C760 203.7 800 171.3 840 174.7C880 178 920 217 940 236.5L960 256L960 541L940 541C920 541 880 541 840 541C800 541 760 541 720 541C680 541 640 541 600 541C560 541 520 541 480 541C440 541 400 541 360 541C320 541 280 541 240 541C200 541 160 541 120 541C80 541 40 541 20 541L0 541Z" fill="#282828"></path><path d="M0 293L20 299.3C40 305.7 80 318.3 120 310.8C160 303.3 200 275.7 240 254.8C280 234 320 220 360 237C400 254 440 302 480 322.8C520 343.7 560 337.3 600 338C640 338.7 680 346.3 720 320.8C760 295.3 800 236.7 840 210.3C880 184 920 190 940 193L960 196L960 541L940 541C920 541 880 541 840 541C800 541 760 541 720 541C680 541 640 541 600 541C560 541 520 541 480 541C440 541 400 541 360 541C320 541 280 541 240 541C200 541 160 541 120 541C80 541 40 541 20 541L0 541Z" fill="#1e1e1e"></path><path d="M0 340L20 334.3C40 328.7 80 317.3 120 322.7C160 328 200 350 240 364.3C280 378.7 320 385.3 360 366.8C400 348.3 440 304.7 480 302.8C520 301 560 341 600 358.5C640 376 680 371 720 352.2C760 333.3 800 300.7 840 295.5C880 290.3 920 312.7 940 323.8L960 335L960 541L940 541C920 541 880 541 840 541C800 541 760 541 720 541C680 541 640 541 600 541C560 541 520 541 480 541C440 541 400 541 360 541C320 541 280 541 240 541C200 541 160 541 120 541C80 541 40 541 20 541L0 541Z" fill="#151515"></path><path d="M0 357L20 345.7C40 334.3 80 311.7 120 314.7C160 317.7 200 346.3 240 350.8C280 355.3 320 335.7 360 337.5C400 339.3 440 362.7 480 355.7C520 348.7 560 311.3 600 301.8C640 292.3 680 310.7 720 322.8C760 335 800 341 840 344.8C880 348.7 920 350.3 940 351.2L960 352L960 541L940 541C920 541 880 541 840 541C800 541 760 541 720 541C680 541 640 541 600 541C560 541 520 541 480 541C440 541 400 541 360 541C320 541 280 541 240 541C200 541 160 541 120 541C80 541 40 541 20 541L0 541Z" fill="#080808"></path><path d="M0 326L20 340.8C40 355.7 80 385.3 120 387C160 388.7 200 362.3 240 366C280 369.7 320 403.3 360 414.5C400 425.7 440 414.3 480 411.8C520 409.3 560 415.7 600 419.2C640 422.7 680 423.3 720 409.7C760 396 800 368 840 363C880 358 920 376 940 385L960 394L960 541L940 541C920 541 880 541 840 541C800 541 760 541 720 541C680 541 640 541 600 541C560 541 520 541 480 541C440 541 400 541 360 541C320 541 280 541 240 541C200 541 160 541 120 541C80 541 40 541 20 541L0 541Z" fill="#000000"></path><path d="M0 430L20 434C40 438 80 446 120 437.8C160 429.7 200 405.3 240 405.3C280 405.3 320 429.7 360 442C400 454.3 440 454.7 480 442.5C520 430.3 560 405.7 600 403C640 400.3 680 419.7 720 423.5C760 427.3 800 415.7 840 402.7C880 389.7 920 375.3 940 368.2L960 361L960 541L940 541C920 541 880 541 840 541C800 541 760 541 720 541C680 541 640 541 600 541C560 541 520 541 480 541C440 541 400 541 360 541C320 541 280 541 240 541C200 541 160 541 120 541C80 541 40 541 20 541L0 541Z" fill="#000000"></path><path d="M0 409L20 417.3C40 425.7 80 442.3 120 456.3C160 470.3 200 481.7 240 474.2C280 466.7 320 440.3 360 438.2C400 436 440 458 480 461.2C520 464.3 560 448.7 600 440.7C640 432.7 680 432.3 720 429.7C760 427 800 422 840 426C880 430 920 443 940 449.5L960 456L960 541L940 541C920 541 880 541 840 541C800 541 760 541 720 541C680 541 640 541 600 541C560 541 520 541 480 541C440 541 400 541 360 541C320 541 280 541 240 541C200 541 160 541 120 541C80 541 40 541 20 541L0 541Z" fill="#000000"></path><path d="M0 472L20 470.2C40 468.3 80 464.7 120 467C160 469.3 200 477.7 240 484.8C280 492 320 498 360 496.8C400 495.7 440 487.3 480 485.5C520 483.7 560 488.3 600 494.3C640 500.3 680 507.7 720 506.8C760 506 800 497 840 489.7C880 482.3 920 476.7 940 473.8L960 471L960 541L940 541C920 541 880 541 840 541C800 541 760 541 720 541C680 541 640 541 600 541C560 541 520 541 480 541C440 541 400 541 360 541C320 541 280 541 240 541C200 541 160 541 120 541C80 541 40 541 20 541L0 541Z" fill="#000000"></path></svg>